{"title":"The.Independents.After.Show.2014.06.02.WS.WEB-DL.x264.XAiO.mkv","uid":10335433,"size":39637123,"categoryP":"video","categoryS":"tv_shows","magnet":"?xt=urn:btih:4d2043d7a079a4273659186686502892a8618007&amp;dn=The.Independents.After.Show.2014.06.02.WS.WEB-DL.x264.XAiO.mkv&amp;tr=udp%3A%2F%2Ftracker.openbittorrent.com%3A80&amp;tr=udp%3A%2F%2Fopen.demonii.com%3A1337&amp;tr=udp%3A%2F%2Ftracker.coppersurfer.tk%3A6969&amp;tr=udp%3A%2F%2Fexodus.desync.com%3A6969","seeders":1,"leechers":0,"uploader":"Reive","files":1,"time":1402465028,"description":"This is basically 480p widescreen. Recorded with Replay Video Catcher from FoxBusiness.com. Converted with AviDemux using Mpeg4 AVC (x264) &amp; AAC (Faac). I have nothing to do with the scene.\n\nTuesday, June 3rd was not capped. Something went wrong on their side and the Livecast didn'd air.. except like the last 10 seconds. They sometimes repeat the after show on the livestream &amp; even that copy only has the last 10 seconds.\n\nGeneral \nComplete name : H:CaptureThe.Independents.After.Show.2014.06.02.WS.WEB-DL.x264.XAiO.mkv \nFormat : MPEG-4 \nFormat profile : Base Media / Version 2 \nCodec ID : mp42 \nFile size : 37.8 MiB \nDuration : 8mn 19s \nOverall bit rate mode : Variable \nOverall bit rate : 635 Kbps \nEncoded date : UTC 2014-06-11 03:02:58 \nTagged date : UTC 2014-06-11 03:04:42 \n\nVideo \nID : 1 \nFormat : AVC \nFormat/Info : Advanced Video Codec \nFormat profile : &lt;a class=&quot;__cf_email__&quot; href=&quot;/cdn-cgi/l/email-protection&quot; data-cfemail=&quot;db93b2bcb39b97e9f5e9&quot;&gt;[email&amp;#160;protected]&lt;/a&gt;&lt;script cf-hash='f9e31' type=&quot;text/javascript&quot;&gt;\n/* &lt;![CDATA[ */!function(){try{var t=&quot;currentScript&quot;in document?document.currentScript:function(){for(var t=document.getElementsByTagName(&quot;script&quot;),e=t.length;e--;)if(t[e].getAttribute(&quot;cf-hash&quot;))return t[e]}();if(t&amp;&amp;t.previousSibling){var e,r,n,i,c=t.previousSibling,a=c.getAttribute(&quot;data-cfemail&quot;);if(a){for(e=&quot;&quot;,r=parseInt(a.substr(0,2),16),n=2;a.length-n;n+=2)i=parseInt(a.substr(n,2),16)^r,e+=String.fromCharCode(i);e=document.createTextNode(e),c.parentNode.replaceChild(e,c)}}}catch(u){}}();/* ]]&gt; */&lt;/script&gt; \nFormat settings, CABAC : Yes \nFormat settings, ReFrames : 4 frames \nCodec ID : avc1 \nCodec ID/Info : Advanced Video Coding \nDuration : 8mn 19s \nDuration_FirstFrame : 80ms \nBit rate : 501 Kbps \nWidth : 604 pixels \nHeight : 324 pixels \nDisplay aspect ratio : 1.85:1 \nFrame rate mode : Constant \nFrame rate : 25.000 fps \nColor space : YUV \nChroma subsampling : 4:2:0 \nBit depth : 8 bits \nScan type : Progressive \nBits/(Pixel*Frame) : 0.102 \nStream size : 29.8 MiB (79%) \nWriting library : x264 core 123 r2189 35cf912 \nEncoding settings : cabac=1 / ref=3 / deblock=1:0:0 / analyse=0x3:0x133 / me=hex / subme=7 / psy=1 / psy_rd=1.00:0.00 / mixed_ref=1 / me_range=16 / chroma_me=1 / trellis=1 / 8x8dct=1 / cqm=0 / deadzone=21,11 / fast_pskip=1 / chroma_qp_offset=-2 / threads=6 / sliced_threads=0 / nr=0 / decimate=1 / interlaced=0 / bluray_compat=0 / constrained_intra=0 / bframes=3 / b_pyramid=2 / b_adapt=1 / b_bias=0 / direct=1 / weightb=1 / open_gop=0 / weightp=2 / keyint=250 / keyint_min=25 / scenecut=40 / intra_refresh=0 / rc_lookahead=40 / rc=crf / mbtree=1 / crf=20.0 / qcomp=0.60 / qpmin=10 / qpmax=51 / qpstep=4 / ip_ratio=1.40 / aq=1:1.00 \nEncoded date : UTC 2014-06-11 03:02:58 \nTagged date : UTC 2014-06-11 03:04:42 \n\nAudio \nID : 2 \nFormat : AAC \nFormat/Info : Advanced Audio Codec \nFormat profile : LC \nCodec ID : 40 \nDuration : 8mn 19s \nBit rate mode : Variable \nBit rate : 128 Kbps \nChannel(s) : 2 channels \nChannel positions : Front: L R \nSampling rate : 48.0 KHz \nCompression mode : Lossy \nStream size : 7.61 MiB (20%) \nEncoded date : UTC 2014-06-11 03:02:58 \nTagged date : UTC 2014-06-11 03:04:42 \n\n","torrent":{"xt":"urn:btih:4d2043d7a079a4273659186686502892a8618007","amp;dn":"The.Independents.After.Show.2014.06.02.WS.WEB-DL.x264.XAiO.mkv","amp;tr":["udp%3A%2F%2Ftracker.openbittorrent.com%3A80","udp%3A%2F%2Fopen.demonii.com%3A1337","udp%3A%2F%2Ftracker.coppersurfer.tk%3A6969","udp%3A%2F%2Fexodus.desync.com%3A6969"],"infoHash":"4d2043d7a079a4273659186686502892a8618007","infoHashBuffer":{"type":"Buffer","data":[77,32,67,215,160,121,164,39,54,89,24,102,134,80,40,146,168,97,128,7]},"announce":[],"urlList":[]}}